<svg width="79" height="14" viewBox="0 0 79 14" fill="none" xmlns="http://www.w3.org/2000/svg">
<path d="M6.58333 10.9135L10.6518 13.4286L9.57217 8.68824L13.1667 5.49876L8.43325 5.08743L6.58333 0.61676L4.73342 5.08743L0 5.49876L3.5945 8.68824L2.51483 13.4286L6.58333 10.9135Z" fill="#F9B432"/>
<path d="M23.0417 10.9135L27.1102 13.4286L26.0305 8.68824L29.625 5.49876L24.8916 5.08743L23.0417 0.61676L21.1918 5.08743L16.4583 5.49876L20.0528 8.68824L18.9732 13.4286L23.0417 10.9135Z" fill="#F9B432"/>
<path d="M39.5 10.9135L43.5685 13.4286L42.4888 8.68824L46.0833 5.49876L41.3499 5.08743L39.5 0.61676L37.6501 5.08743L32.9167 5.49876L36.5112 8.68824L35.4315 13.4286L39.5 10.9135Z" fill="#F9B432"/>
<path d="M62.5417 5.49876L57.8083 5.08069L55.9583 0.61676L54.1084 5.08743L49.375 5.49876L52.9695 8.68824L51.8898 13.4286L55.9583 10.9135L60.0268 13.4286L58.9538 8.68824L62.5417 5.49876ZM55.9583 9.6525V3.38143L57.0841 6.10564L59.9676 6.36188L57.7819 8.30388L58.4403 11.1899L55.9583 9.6525Z" fill="#F9B432"/>
<path d="M79 5.49876L74.2666 5.08069L72.4167 0.61676L70.5668 5.08743L65.8333 5.49876L69.4278 8.68824L68.3482 13.4286L72.4167 10.9135L76.4852 13.4286L75.4121 8.68824L79 5.49876ZM72.4167 9.6525L69.9413 11.1832L70.5997 8.29714L68.414 6.35513L71.2975 6.09889L72.4167 3.38143L73.5424 6.10564L76.4259 6.36188L74.2403 8.30388L74.8986 11.1899L72.4167 9.6525Z" fill="#F9B432"/>
</svg>
